Coordinates
version=1
nRows=5
nColumns=63
inDegrees=yes

Units are S.I. units (second, meters, Newtons, ...)
If the header above contains a line with 'inDegrees', this indicates whether rotational values are in degrees (yes) or radians (no).

endheader
time	pelvis_tilt	pelvis_list	pelvis_rotation	pelvis_tx	pelvis_ty	pelvis_tz	hip_flexion_r	hip_adduction_r	hip_rotation_r	knee_angle_r	knee_angle_r_beta	ankle_angle_r	subtalar_angle_r	mtp_angle_r	hip_flexion_l	hip_adduction_l	hip_rotation_l	knee_angle_l	knee_angle_l_beta	ankle_angle_l	subtalar_angle_l	mtp_angle_l	L5_S1_Flex_Ext	L5_S1_Lat_Bending	L5_S1_axial_rotation	L4_L5_Flex_Ext	L4_L5_Lat_Bending	L4_L5_axial_rotation	L3_L4_Flex_Ext	L3_L4_Lat_Bending	L3_L4_axial_rotation	L2_L3_Flex_Ext	L2_L3_Lat_Bending	L2_L3_axial_rotation	L1_L2_Flex_Ext	L1_L2_Lat_Bending	L1_L2_axial_rotation	L1_T12_Flex_Ext	L1_T12_Lat_Bending	L1_T12_axial_rotation	Abs_r3	Abs_r2	Abs_r1	Abs_t1	Abs_t2	neck_flexion	neck_bending	neck_rotation	arm_flex_r	arm_add_r	arm_rot_r	elbow_flex_r	pro_sup_r	wrist_flex_r	wrist_dev_r	arm_flex_l	arm_add_l	arm_rot_l	elbow_flex_l	pro_sup_l	wrist_flex_l	wrist_dev_l
      3.94200000	    -51.81791183	     -3.88493263	      2.12296960	     -0.37377707	      1.12677499	      0.03769797	     86.55215790	     -6.26823681	     -5.85016175	     70.83829825	      1.23636154	      1.38494200	      2.58906584	      0.00000000	    116.63652404	     -3.49172798	      4.25989174	     93.61883164	      1.63395685	     20.42495777	      8.08296676	      0.00000000	     -0.08963553	      0.29550941	      0.03790906	     -0.16646214	      0.39302751	      0.04027838	     -0.14726221	      0.71850158	      0.04027838	     -0.10244444	      0.71850158	      0.03317043	     -0.08323555	      0.60260279	      0.03080111	     -0.05121774	      0.45774407	      0.02843180	     -0.64025761	      3.34286153	      0.21083884	      0.00000000	      0.00000000	     -0.00000000	      0.00000000	      0.00000000	     67.64737589	    -16.31499744	     13.25859223	     39.18531841	     51.67802742	      0.00000000	      5.00002247	     67.52123147	     -8.78672503	     15.42177202	     41.21671607	     58.24816464	      0.00000000	      5.00002247
      3.95000000	    -51.78815137	     -3.99314166	      1.66134444	     -0.37390511	      1.12643887	      0.03807894	     87.49497133	     -5.95582301	     -5.53494801	     73.83609524	      1.28868297	      1.65473792	      2.31651522	      0.00000000	    115.54552718	     -3.77386007	      4.44836866	     90.68314393	      1.58271944	     20.06967234	      7.90151909	      0.00000000	     -0.08823775	      0.32299813	      0.12846557	     -0.16386632	      0.42958751	      0.13649467	     -0.14496580	      0.78533765	      0.13649467	     -0.10084692	      0.78533765	      0.11240738	     -0.08193757	      0.65865779	      0.10437828	     -0.05041905	      0.50032410	      0.09634918	     -0.63027342	      3.65381944	      0.71448698	      0.00000000	      0.00000000	     -0.00000000	      0.00000000	      0.00000000	     67.63415771	    -16.33739781	     13.27832008	     39.35328979	     51.68667844	      0.00000000	      5.00002217	     67.51410273	     -8.70960372	     15.29640174	     41.04958855	     58.24735493	      0.00000000	      5.00002217
      3.95800000	    -51.73915538	     -4.10672801	      1.23579673	     -0.37403682	      1.12601981	      0.03857478	     88.50327897	     -5.68410950	     -5.21437939	     76.89823479	      1.34212739	      1.96041079	      2.14929105	      0.00000000	    114.28494714	     -4.05890755	      4.64634690	     87.62038117	      1.52926414	     19.66327375	      7.78082309	      0.00000000	     -0.08875732	      0.34765375	      0.21038268	     -0.16483123	      0.46237948	      0.22353159	     -0.14581941	      0.84528532	      0.22353159	     -0.10144074	      0.84528532	      0.18408484	     -0.08242005	      0.70893552	      0.17093593	     -0.05071593	      0.53851565	      0.15778701	     -0.63398469	      3.93272872	      1.17008534	      0.00000000	      0.00000000	     -0.00000000	      0.00000000	      0.00000000	     67.63414975	    -16.36149877	     13.35643510	     39.52998802	     51.70369970	      0.00000000	      5.00002186	     67.52538470	     -8.58388734	     15.09997872	     40.80030259	     58.23982929	      0.00000000	      5.00002186
      3.96700000	    -51.68632595	     -4.19613423	      0.83615054	     -0.37414918	      1.12555848	      0.03895772	     89.58322843	     -5.47292999	     -4.85114530	     79.98333824	      1.39597260	      2.35859783	      2.15929846	      0.00000000	    112.88752360	     -4.34110108	      4.82713697	     84.48813216	      1.47459608	     19.14460142	      7.71285170	      0.00000000	     -0.08779109	      0.37196819	      0.29355011	     -0.16303683	      0.49471770	      0.31189699	     -0.14423198	      0.90440346	      0.31189699	     -0.10033643	      0.90440346	      0.25685634	     -0.08152280	      0.75851754	      0.23850946	     -0.05016383	      0.57617873	      0.22016258	     -0.62708296	      4.20777858	      1.63263764	      0.00000000	      0.00000000	     -0.00000000	      0.00000000	      0.00000000	     67.63423952	    -16.42604340	     13.48289771	     39.67954972	     51.72990688	      0.00000000	      5.00002146	     67.52792844	     -8.41979129	     14.82552667	     40.50427601	     58.22827789	      0.00000000	      5.00002146
      3.97500000	    -51.61986057	     -4.33605793	      0.40714987	     -0.37424117	      1.12503348	      0.03933838	     90.69946461	     -5.24727462	     -4.52573989	     83.06205806	      1.44970640	      2.82648689	      2.35978197	      0.00000000	    111.38756980	     -4.62657069	      5.12453359	     81.36150628	      1.42002617	     18.50772942	      7.69330036	      0.00000000	     -0.08779058	      0.40426140	      0.38208308	     -0.16303588	      0.53766766	      0.40596327	     -0.14423114	      0.98292116	      0.40596327	     -0.10033585	      0.98292116	      0.33432269	     -0.08152233	      0.82436984	      0.31044250	     -0.05016354	      0.62620090	      0.28656231	     -0.62707933	      4.57308577	      2.12503147	      0.00000000	      0.00000000	     -0.00000000	      0.00000000	      0.00000000	     67.67313146	    -16.49071605	     13.65532194	     39.81888728	     51.76153500	      0.00000000	      5.00002109	     67.50806560	     -8.24430074	     14.53151345	     40.20808393	     58.21345364	      0.00000000	      5.00002109
